<svg width="230" height="64" viewBox="0 0 230 64" fill="none" xmlns="http://www.w3.org/2000/svg"><path d="M11.213 11.106A29.563 29.563 0 0 0 2.59 31.958c0 7.808 3.098 15.3 8.622 20.852a29.296 29.296 0 0 0 9.54 6.393 29.441 29.441 0 0 0 22.562 0 29.296 29.296 0 0 0 9.54-6.393 29.563 29.563 0 0 0 8.622-20.852c0-7.807-3.098-15.3-8.622-20.852a29.297 29.297 0 0 0-9.537-6.387 29.44 29.44 0 0 0-22.553 0 29.298 29.298 0 0 0-9.538 6.387h-.014z" fill="#05171D"/><path d="M32.044 63.72a31.574 31.574 0 0 1-12.174-2.404 31.42 31.42 0 0 1-10.287-6.904A31.821 31.821 0 0 1 .296 31.96 31.821 31.821 0 0 1 9.583 9.508 31.583 31.583 0 0 1 19.866 2.62a31.737 31.737 0 0 1 24.317 0 31.581 31.581 0 0 1 10.283 6.888 31.821 31.821 0 0 1 9.288 22.452 31.821 31.821 0 0 1-9.288 22.452 31.423 31.423 0 0 1-10.269 6.896 31.577 31.577 0 0 1-12.153 2.412zm0-58.981A27.01 27.01 0 0 0 21.64 6.802a26.879 26.879 0 0 0-8.791 5.906A27.302 27.302 0 0 0 4.89 31.96c0 7.208 2.859 14.126 7.957 19.252a27.011 27.011 0 0 0 8.796 5.895 27.143 27.143 0 0 0 20.804 0 27.01 27.01 0 0 0 8.796-5.895 27.287 27.287 0 0 0 7.963-19.252c0-7.21-2.861-14.128-7.963-19.252A26.874 26.874 0 0 0 42.452 6.8a27.007 27.007 0 0 0-10.408-2.062z" fill="#000"/><path d="M6.69 31.958c0-14.017 11.348-25.382 25.342-25.382 13.995 0 25.345 11.365 25.345 25.382 0 14.018-11.347 25.383-25.333 25.383-13.985 0-25.354-11.362-25.354-25.383z" fill="#FAB31E"/><path d="M32.044 58.856c-14.812 0-26.866-12.065-26.866-26.898S17.22 5.06 32.044 5.06c14.825 0 26.867 12.065 26.867 26.895S46.846 58.856 32.043 58.856zm0-50.765c-13.132 0-23.817 10.716-23.817 23.867 0 13.152 10.685 23.868 23.817 23.868s23.82-10.716 23.82-23.868c0-13.15-10.697-23.867-23.82-23.867z" fill="#fff"/><path d="M42.775 47.628a1.969 1.969 0 0 1-.807 2.047 2 2 0 0 1-2.962-.828 1.969 1.969 0 0 1 .384-2.165 1.994 1.994 0 0 1 1.785-.581 1.997 1.997 0 0 1 1.288.817c.15.214.256.455.312.71z" fill="#05171D"/><path d="M40.828 50.646c-.66.001-1.294-.25-1.773-.7a2.553 2.553 0 0 1-.2-3.518 2.59 2.59 0 0 1 3.523-.391 2.55 2.55 0 0 1 .587 3.475 2.579 2.579 0 0 1-2.137 1.134zm0-3.989c-.1 0-.201.011-.3.033-.338.08-.636.28-.837.562a1.416 1.416 0 0 0 .199 1.87c.256.235.59.368.938.375a1.43 1.43 0 0 0 1.144-.595 1.414 1.414 0 0 0-.2-1.874 1.434 1.434 0 0 0-.944-.37zM57.56 45.074H36.614a1.167 1.167 0 0 1-.857-.316 1.152 1.152 0 0 1-.267-1.289 1.153 1.153 0 0 1 .663-.626c.148-.054.304-.078.461-.07H57.56c.297.015.576.143.781.357a1.148 1.148 0 0 1 0 1.587 1.162 1.162 0 0 1-.781.357z" fill="#000"/><path d="M43.386 45.074a1.162 1.162 0 0 1-1.07-.712 1.143 1.143 0 0 1-.086-.44V26.94a1.28 1.28 0 0 0-.8-1.189 1.3 1.3 0 0 0-1.69.696 1.28 1.28 0 0 0-.098.492v16.983c0 .305-.122.597-.339.812a1.16 1.16 0 0 1-1.634 0 1.145 1.145 0 0 1-.339-.812V26.94c0-.951.38-1.863 1.057-2.536a3.618 3.618 0 0 1 5.101 0 3.574 3.574 0 0 1 1.056 2.535v16.983c0 .305-.122.598-.339.814a1.163 1.163 0 0 1-.82.338z" fill="#000"/><path d="M39.675 33.34v-6.46c0-.393.557-.893 1.246-.893.686 0 1.246.5 1.246.893v6.46" fill="#05171D"/><path d="M43.323 33.34h-2.315v-6.186a.3.3 0 0 0-.177 0v6.186h-2.315v-6.46c0-1.086 1.123-2.042 2.396-2.042s2.396.956 2.396 2.042v6.46h.015z" fill="#000"/><path d="M38.333 25.987l-17.169-8.442V31.72l-8.96 13.181 7.487 4.4c.722-1.066.434-2.903-1.198-4.21l6.064-8.733 3.106 12.848 8.241-2.75c-.37-1.233-1.976-2.165-4.025-1.713L28.75 31.72v-4.069l7.268 3.2c.678.344 1.46.423 2.193.223a3.044 3.044 0 0 0 1.77-1.307c.748-1.306-.093-2.86-1.648-3.78z" fill="#FAB31E"/><path d="M20.149 51.331l-10.11-5.954 9.583-14.127V15.107l19.466 9.576c2.396 1.411 3.321 3.87 2.201 5.817a4.527 4.527 0 0 1-1.67 1.613 4.562 4.562 0 0 1-2.256.578 4.49 4.49 0 0 1-2.015-.474l-5.092-2.238v1.575l2.777 11.573c2.078.048 3.803 1.19 4.312 2.908l.42 1.402-11.213 3.74-2.695-11.16-3.427 4.92c1.291 1.631 1.54 3.703.504 5.224l-.803 1.19.018-.02zm5.091-18.617l3.51 14.53 1.998-.667-.357-1.488-3.165-13.205v-6.558l9.5 4.185c.199.103.421.155.646.152a1.505 1.505 0 0 0 1.279-.658c.278-.488-.318-1.235-1.063-1.69l-14.914-7.332v12.204l-8.299 12.229 3.145 1.849-1.096-.873 8.822-12.678h-.006z" fill="#FAB31E"/><path d="M24.83 17.485a3.5 3.5 0 0 0 1.894-.656c.553-.399.976-.95 1.216-1.586a3.445 3.445 0 0 0-.854-3.723 3.505 3.505 0 0 0-3.78-.682 3.48 3.48 0 0 0-1.54 1.278 3.45 3.45 0 0 0-.575 1.91 3.532 3.532 0 0 0 1.1 2.478 3.575 3.575 0 0 0 2.539.981zM38.294 25.972l-17.169-8.439v14.175l-8.951 13.178 7.487 4.4c.724-1.063.434-2.902-1.198-4.206l6.08-8.734 3.102 12.845 8.233-2.754c-.369-1.235-1.977-2.167-4.025-1.711l-3.127-13.03V27.64l7.268 3.2c.68.34 1.462.416 2.195.213a3.047 3.047 0 0 0 1.764-1.314c.734-1.29-.095-2.843-1.659-3.766z" fill="#000"/><path d="M32.044 58.856c-14.812 0-26.866-12.065-26.866-26.898S17.22 5.06 32.044 5.06c14.825 0 26.867 12.065 26.867 26.895S46.846 58.856 32.043 58.856zm0-50.765c-13.132 0-23.817 10.716-23.817 23.867 0 13.152 10.685 23.868 23.817 23.868s23.82-10.716 23.82-23.868c0-13.15-10.697-23.867-23.82-23.867z" fill="#fff"/><path d="M108.636 29.511H92.189V7.99h7.891v15.937h8.556v5.584zM129.357 15.815h-10.182v4.978h10.182v-4.978zM130.642 7.882h-11.467v5.236h11.467V7.882zM117.71 7.882h-7.924v21.522h7.924V7.882zM130.992 23.954h-11.817v5.45h11.817v-5.45zM89.02 15.923H78.856v4.98H89.02v-4.98zM90.302 7.99H78.856v5.236h11.446V7.99zM90.652 24.061H78.856v5.448h11.796V24.06zM77.385 7.99H69.45v21.519h7.936V7.989zM216.32 24.525c-2.854-.276-4.564-2.41-4.564-5.837 0-3.536 1.638-5.656 4.564-5.933v-5.39c-7.652.276-12.578 4.643-12.578 11.293 0 8.243 6.349 11.104 12.578 11.264v-5.397zM217.76 7.364v5.41c2.609.33 4.193 2.404 4.193 5.592 0 3.692-1.461 5.811-4.193 6.142v5.402c7.406-.345 12.216-4.724 12.216-11.285 0-6.51-4.953-10.996-12.216-11.26zM187.77 7.876h-7.999v21.52h7.999V7.875zM203.646 29.199c-.234-.298-.386-.977-.503-2.14l-.078-.774-.117-.742a10.324 10.324 0 0 0-.272-1.875c-.231-1.066-.542-1.905-1.007-2.485a4.722 4.722 0 0 0-2.554-1.748c2.324-.875 3.791-2.908 3.791-5.227 0-2.319-1.315-4.212-3.594-5.302-1.548-.74-3.252-1.03-6.322-1.03h-3.674v4.98h2.237c2.53 0 3.737.676 3.737 2.156s-1.09 2.223-3.309 2.223h-2.665v4.56h1.692c3.075 0 3.968.894 4.36 4.359.3 2.679.3 2.616.578 3.244h7.862l-.162-.2zM143.415 24.522c-2.453-.297-4.094-2.518-4.094-5.93 0-3.336 1.629-5.515 4.094-5.828v-5.4c-6.966.265-12.111 4.933-12.111 11.294 0 6.442 5.01 10.946 12.111 11.255v-5.39zM144.879 12.743c1.863.12 3.175 1.191 3.576 3.108h7.735c-.38-4.828-5.193-8.335-11.311-8.498v5.39zM148.455 20.915c-.366 2.241-1.662 3.474-3.576 3.616v5.403c6.379-.095 11.045-3.673 11.467-9.02h-7.891zM178.72 7.998h-22.425v5.585h22.425V7.998zM171.455 15.166h-7.891V29.52h7.891V15.166zM118.076 50.524H105.21v5.504h12.866v-5.504zM116.431 42.303H105.21v5.027h11.221v-5.027zM117.722 34.29H105.21v5.286h12.512v-5.287zM103.761 34.29h-7.772v21.735h7.772V34.29zM77.227 34.283h-7.865v21.742h7.865V34.283zM81.036 34.283h-2.36v5.504h.92c4.243 0 6.537 1.893 6.537 5.45 0 3.394-2.06 5.287-5.759 5.287h-1.698v5.501h2.204c4.514 0 7.29-.747 9.599-2.572 2.545-2.018 3.722-4.691 3.722-8.38 0-6.655-5.091-10.79-13.165-10.79zM156.259 51.123c-3.087-.131-4.956-2.32-4.956-5.918 0-3.715 1.797-5.873 4.956-6.016v-5.436c-7.909.152-13.021 4.6-13.021 11.42 0 6.735 5.301 11.337 13.021 11.391v-5.441zM157.706 33.78v5.513c2.396.473 3.86 2.527 3.86 5.596 0 3.572-1.339 5.683-3.86 6.156v5.49c7.247-.471 11.925-4.865 11.925-11.384 0-6.477-4.816-10.972-11.925-11.37zM191.909 34.233h-22.563v5.64h22.563v-5.64zM184.599 41.472h-7.939v14.497h7.939V41.472zM127.958 34.29h-7.921v21.73h7.921V34.29zM138.958 35.596c-1.797-.98-3.776-1.307-7.99-1.307h-1.593v5.302h2.267c2.222 0 3.393.81 3.393 2.366 0 1.557-1.015 2.265-3.237 2.265h-2.423v5.073h3.555c3.39 0 5.57-.596 7.244-1.989a6.769 6.769 0 0 0 1.904-2.42c.439-.942.655-1.972.63-3.01a7.038 7.038 0 0 0-.996-3.658 7.099 7.099 0 0 0-2.754-2.622z" fill="#000"/></svg>